<mxfile host="app.diagrams.net" modified="2023-01-11T15:08:50.204Z" agent="5.0 (Macintosh; Intel Mac OS X 10_15_7) AppleWebKit/605.1.15 (KHTML, like Gecko) Version/15.6 Safari/605.1.15" etag="1GDuvnvLeP3zjzJX-Urm" version="20.8.4" type="github">
  <diagram id="exo0wl_JaessTb_ztBuu" name="第 1 页">
    <mxGraphModel dx="1025" dy="635" grid="1" gridSize="10" guides="1" tooltips="1" connect="1" arrows="1" fold="1" page="1" pageScale="1" pageWidth="827" pageHeight="1169" math="0" shadow="0">
      <root>
        <mxCell id="0" />
        <mxCell id="1" parent="0" />
        <mxCell id="kg9aosHLZSWqHDmNcpNS-45" value="" style="strokeWidth=2;html=1;shape=mxgraph.flowchart.database;whiteSpace=wrap;" parent="1" vertex="1">
          <mxGeometry x="320" y="370" width="380" height="270" as="geometry" />
        </mxCell>
        <mxCell id="kg9aosHLZSWqHDmNcpNS-46" value="" style="rounded=1;whiteSpace=wrap;html=1;absoluteArcSize=1;arcSize=14;strokeWidth=2;" parent="1" vertex="1">
          <mxGeometry x="329" y="470" width="221" height="140" as="geometry" />
        </mxCell>
        <mxCell id="dwXv46vQIdIjxhe5fAeN-2" style="edgeStyle=orthogonalEdgeStyle;rounded=0;orthogonalLoop=1;jettySize=auto;html=1;exitX=0;exitY=0.91;exitDx=0;exitDy=0;exitPerimeter=0;startArrow=classic;startFill=1;endArrow=none;endFill=0;" edge="1" parent="1" source="kg9aosHLZSWqHDmNcpNS-47">
          <mxGeometry relative="1" as="geometry">
            <mxPoint x="340" y="650" as="targetPoint" />
            <Array as="points">
              <mxPoint x="340" y="590" />
              <mxPoint x="340" y="590" />
            </Array>
          </mxGeometry>
        </mxCell>
        <mxCell id="kg9aosHLZSWqHDmNcpNS-47" value="分支&lt;br&gt;master" style="strokeWidth=2;html=1;shape=mxgraph.flowchart.multi-document;whiteSpace=wrap;" parent="1" vertex="1">
          <mxGeometry x="340" y="508" width="88" height="60" as="geometry" />
        </mxCell>
        <mxCell id="kg9aosHLZSWqHDmNcpNS-57" style="edgeStyle=orthogonalEdgeStyle;rounded=0;orthogonalLoop=1;jettySize=auto;html=1;exitX=0;exitY=0;exitDx=0;exitDy=37.5;exitPerimeter=0;entryX=0.864;entryY=0.667;entryDx=0;entryDy=0;entryPerimeter=0;" parent="1" source="kg9aosHLZSWqHDmNcpNS-48" target="kg9aosHLZSWqHDmNcpNS-47" edge="1">
          <mxGeometry relative="1" as="geometry" />
        </mxCell>
        <mxCell id="kg9aosHLZSWqHDmNcpNS-58" value="commit&lt;br&gt;" style="edgeLabel;html=1;align=center;verticalAlign=middle;resizable=0;points=[];" parent="kg9aosHLZSWqHDmNcpNS-57" vertex="1" connectable="0">
          <mxGeometry x="-0.3487" y="-1" relative="1" as="geometry">
            <mxPoint as="offset" />
          </mxGeometry>
        </mxCell>
        <mxCell id="kg9aosHLZSWqHDmNcpNS-48" value="暂存区index" style="shape=cylinder3;whiteSpace=wrap;html=1;boundedLbl=1;backgroundOutline=1;size=15;" parent="1" vertex="1">
          <mxGeometry x="482" y="510" width="46" height="60" as="geometry" />
        </mxCell>
        <mxCell id="kg9aosHLZSWqHDmNcpNS-61" style="edgeStyle=orthogonalEdgeStyle;rounded=0;orthogonalLoop=1;jettySize=auto;html=1;exitX=0;exitY=0.5;exitDx=0;exitDy=0;entryX=1;entryY=0;entryDx=0;entryDy=37.5;entryPerimeter=0;" parent="1" source="kg9aosHLZSWqHDmNcpNS-49" target="kg9aosHLZSWqHDmNcpNS-48" edge="1">
          <mxGeometry relative="1" as="geometry" />
        </mxCell>
        <mxCell id="kg9aosHLZSWqHDmNcpNS-62" value="add" style="edgeLabel;html=1;align=center;verticalAlign=middle;resizable=0;points=[];" parent="kg9aosHLZSWqHDmNcpNS-61" vertex="1" connectable="0">
          <mxGeometry x="-0.0069" relative="1" as="geometry">
            <mxPoint as="offset" />
          </mxGeometry>
        </mxCell>
        <mxCell id="kg9aosHLZSWqHDmNcpNS-49" value="工作区&lt;br&gt;workspace" style="shape=document;whiteSpace=wrap;html=1;boundedLbl=1;" parent="1" vertex="1">
          <mxGeometry x="600" y="522" width="90" height="50" as="geometry" />
        </mxCell>
        <mxCell id="kg9aosHLZSWqHDmNcpNS-65" value="clone" style="edgeStyle=orthogonalEdgeStyle;rounded=0;orthogonalLoop=1;jettySize=auto;html=1;exitX=1;exitY=0;exitDx=0;exitDy=35;exitPerimeter=0;entryX=-0.008;entryY=0.474;entryDx=0;entryDy=0;entryPerimeter=0;" parent="1" source="kg9aosHLZSWqHDmNcpNS-50" target="kg9aosHLZSWqHDmNcpNS-45" edge="1">
          <mxGeometry relative="1" as="geometry" />
        </mxCell>
        <mxCell id="kg9aosHLZSWqHDmNcpNS-79" style="edgeStyle=orthogonalEdgeStyle;rounded=0;orthogonalLoop=1;jettySize=auto;html=1;exitX=1;exitY=0.5;exitDx=0;exitDy=0;exitPerimeter=0;entryX=0;entryY=0.3;entryDx=0;entryDy=0;entryPerimeter=0;startArrow=none;startFill=0;endArrow=classic;endFill=1;" parent="1" source="kg9aosHLZSWqHDmNcpNS-50" target="kg9aosHLZSWqHDmNcpNS-47" edge="1">
          <mxGeometry relative="1" as="geometry">
            <Array as="points">
              <mxPoint x="155" y="526" />
            </Array>
          </mxGeometry>
        </mxCell>
        <mxCell id="kg9aosHLZSWqHDmNcpNS-80" value="fetch" style="edgeLabel;html=1;align=center;verticalAlign=middle;resizable=0;points=[];" parent="kg9aosHLZSWqHDmNcpNS-79" vertex="1" connectable="0">
          <mxGeometry x="-0.0466" y="2" relative="1" as="geometry">
            <mxPoint as="offset" />
          </mxGeometry>
        </mxCell>
        <mxCell id="kg9aosHLZSWqHDmNcpNS-81" style="edgeStyle=orthogonalEdgeStyle;rounded=0;orthogonalLoop=1;jettySize=auto;html=1;exitX=0.855;exitY=1;exitDx=0;exitDy=-4.35;exitPerimeter=0;entryX=0.411;entryY=0.92;entryDx=0;entryDy=0;entryPerimeter=0;startArrow=none;startFill=0;endArrow=classic;endFill=1;" parent="1" source="kg9aosHLZSWqHDmNcpNS-50" target="kg9aosHLZSWqHDmNcpNS-49" edge="1">
          <mxGeometry relative="1" as="geometry">
            <Array as="points">
              <mxPoint x="136" y="650" />
              <mxPoint x="637" y="650" />
            </Array>
          </mxGeometry>
        </mxCell>
        <mxCell id="kg9aosHLZSWqHDmNcpNS-82" value="pull" style="edgeLabel;html=1;align=center;verticalAlign=middle;resizable=0;points=[];" parent="kg9aosHLZSWqHDmNcpNS-81" vertex="1" connectable="0">
          <mxGeometry x="-0.051" y="3" relative="1" as="geometry">
            <mxPoint x="-70" y="3" as="offset" />
          </mxGeometry>
        </mxCell>
        <mxCell id="kg9aosHLZSWqHDmNcpNS-50" value="远程仓库origin" style="shape=cylinder3;whiteSpace=wrap;html=1;boundedLbl=1;backgroundOutline=1;size=15;" parent="1" vertex="1">
          <mxGeometry x="25" y="463" width="130" height="110" as="geometry" />
        </mxCell>
        <mxCell id="kg9aosHLZSWqHDmNcpNS-52" value="本地仓库" style="text;strokeColor=none;align=center;fillColor=none;html=1;verticalAlign=middle;whiteSpace=wrap;rounded=0;" parent="1" vertex="1">
          <mxGeometry x="480" y="390" width="60" height="30" as="geometry" />
        </mxCell>
        <mxCell id="kg9aosHLZSWqHDmNcpNS-54" value="版本库&lt;br&gt;.git" style="text;strokeColor=none;align=center;fillColor=none;html=1;verticalAlign=middle;whiteSpace=wrap;rounded=0;" parent="1" vertex="1">
          <mxGeometry x="486" y="470" width="60" height="30" as="geometry" />
        </mxCell>
        <mxCell id="kg9aosHLZSWqHDmNcpNS-66" value="push" style="edgeStyle=orthogonalEdgeStyle;rounded=0;orthogonalLoop=1;jettySize=auto;html=1;exitX=1;exitY=0;exitDx=0;exitDy=35;exitPerimeter=0;entryX=0;entryY=0.5;entryDx=0;entryDy=0;entryPerimeter=0;startArrow=classic;startFill=1;endArrow=none;endFill=0;" parent="1" target="kg9aosHLZSWqHDmNcpNS-47" edge="1">
          <mxGeometry relative="1" as="geometry">
            <mxPoint x="156" y="543" as="sourcePoint" />
            <mxPoint x="317.96000000000004" y="542.98" as="targetPoint" />
            <Array as="points">
              <mxPoint x="340" y="543" />
            </Array>
          </mxGeometry>
        </mxCell>
        <mxCell id="kg9aosHLZSWqHDmNcpNS-70" style="edgeStyle=orthogonalEdgeStyle;rounded=0;orthogonalLoop=1;jettySize=auto;html=1;exitX=0;exitY=0.5;exitDx=0;exitDy=0;entryX=0.5;entryY=0.88;entryDx=0;entryDy=0;entryPerimeter=0;startArrow=none;startFill=0;endArrow=classic;endFill=1;" parent="1" source="kg9aosHLZSWqHDmNcpNS-67" target="kg9aosHLZSWqHDmNcpNS-47" edge="1">
          <mxGeometry relative="1" as="geometry" />
        </mxCell>
        <mxCell id="kg9aosHLZSWqHDmNcpNS-67" value="HEAD" style="rounded=1;whiteSpace=wrap;html=1;" parent="1" vertex="1">
          <mxGeometry x="394" y="585" width="40" height="20" as="geometry" />
        </mxCell>
        <mxCell id="kg9aosHLZSWqHDmNcpNS-78" value="merge/checkout" style="edgeStyle=orthogonalEdgeStyle;rounded=0;orthogonalLoop=1;jettySize=auto;html=1;exitX=0.08;exitY=0.1;exitDx=0;exitDy=0;exitPerimeter=0;entryX=0.98;entryY=0.02;entryDx=0;entryDy=0;entryPerimeter=0;startArrow=none;startFill=0;endArrow=classic;endFill=1;" parent="1" source="kg9aosHLZSWqHDmNcpNS-47" target="kg9aosHLZSWqHDmNcpNS-47" edge="1">
          <mxGeometry relative="1" as="geometry">
            <Array as="points">
              <mxPoint x="347" y="488" />
              <mxPoint x="448" y="488" />
              <mxPoint x="448" y="509" />
            </Array>
          </mxGeometry>
        </mxCell>
      </root>
    </mxGraphModel>
  </diagram>
</mxfile>
